<?xml version="1.0" encoding="utf-8"?>
<!-- Generator: Adobe Illustrator 26.5.0, SVG Export Plug-In . SVG Version: 6.00 Build 0)  -->
<svg version="1.1" id="Layer_1" xmlns:svg="http://www.w3.org/2000/svg"
	 xmlns="http://www.w3.org/2000/svg" xmlns:xlink="http://www.w3.org/1999/xlink" x="0px" y="0px" viewBox="0 0 1080 640"
	 style="enable-background:new 0 0 1080 640;" xml:space="preserve">
<style type="text/css">
	.st0{fill-rule:evenodd;clip-rule:evenodd;}
	.st1{fill:none;stroke:#000000;stroke-width:3;stroke-linecap:square;stroke-miterlimit:10;}
	.st2{opacity:0.6;fill:#E6E65C;}
	.st3{opacity:0.6;fill:#47B38F;}
	.st4{opacity:0.6;}
	.st5{fill:#1F4D3D;}
	.st6{fill:#808033;}
</style>
<g>
	<g>
		
			<g id="g2399_00000145745634606560094920000001121646569226227856_" transform="matrix(0.8746401,0,0,-0.8518511,33.878521,592.87107)">
			<polygon id="polygon2401_00000178902653123287168670000002545964400041792140_" class="st0" points="290.5,469.8 290.5,469.6 
				290.6,469.4 290.6,469.2 290.6,469.2 290.6,469.1 290.6,469.1 290.7,469 290.6,469 290.6,469.1 290.6,469.1 290.6,469.2 
				290.5,469.6 290.4,470.1 290.4,470.4 			"/>
			<polyline id="polyline2403_00000137126809629706706200000013138986227337155498_" class="st1" points="495.2,253.7 494.6,252.8 
				494,251.7 493.2,250.5 492.4,249.2 491.4,247.8 490.9,247.1 490.3,246.3 489.7,245.5 489.1,244.7 488,242.9 487.3,242.2 
				486.8,241.5 486.3,240.8 485.9,240.1 485.4,239.6 485,239.1 484.4,238.1 484,237.8 483.8,237.5 483.6,237.2 483.5,236.9 
				483.2,236.7 483.2,236.5 480.9,234.3 478.9,232 476.8,229.7 474.9,227.3 473.1,224.9 471.3,222.4 468,217.3 466.4,214.8 
				465,212.1 463.5,209.4 462.2,206.7 461,203.9 459.9,201 457.8,195.2 456.4,191.6 452.1,177.8 445,164.9 430.8,150.2 430.3,150.1 
				426.5,146.8 422.7,143.4 418.9,139.8 415.2,136.2 413.6,134.7 409.4,130.9 407.5,128.9 388.9,107.7 382.3,101.1 374.5,92.6 
				366,84.2 362.9,81.1 362.2,80.1 361.5,79.1 360.8,78.2 360.1,77.2 359.2,76.3 358.4,75.5 358,75.1 357.7,74.9 357.5,74.7 
				357,74.3 356.8,74.1 356.6,73.9 355.6,73.1 354.5,72.4 353.4,71.8 352.9,71.4 352.3,71 351.1,70.5 350.5,70.2 349.9,69.9 
				349.3,69.6 348.7,69.3 347.4,68.8 345.7,67.7 344.1,66.6 340.7,64.5 337.3,62.5 336.3,62 335.5,61.5 333.8,60.4 326.7,47.1 
				325.7,45.3 324.8,43.6 323.8,41.9 323,40.3 322.2,38.8 321.4,37.3 320.7,35.8 320,34.5 319.3,33.2 318.6,32 317.5,29.7 
				316.9,28.7 316.4,27.7 315.9,26.8 315.5,25.9 315.1,25 314.8,23.9 314.7,23.8 314.6,23.7 314.6,23.6 314.4,23.5 314.2,23.4 
				313.5,23.4 313.1,23.4 312.6,23.3 312,23.3 311.4,23.3 310.7,23.3 310,23.3 309.2,23.4 308.3,23.4 307.4,23.5 306.5,23.6 
				304.4,23.9 302.2,24.2 301,24.4 300.4,24.4 299.9,24.5 298.6,24.7 297.3,24.8 294.6,25.3 291.7,25.8 290.2,26.1 288.6,26.3 
				285.4,26.9 281.7,27.6 278,28.4 274.2,29.1 272.3,29.5 271.4,29.7 270.9,29.8 270.5,29.8 266.6,30.7 262.8,31.5 258.9,32.4 
				258.4,32.5 257.9,32.6 257,32.8 255.1,33.2 251.1,34.1 249.1,34.6 248.6,34.8 248.1,34.8 247.1,35 243.1,36 239.1,37 235,38 
				234,38.3 233.4,38.5 233,38.6 231,39 226.9,40.1 222.8,41.1 218,42.5 213.4,43.7 208.9,45 204.5,46.2 200.3,47.4 196.2,48.7 
				192.2,49.9 188.4,51.1 184.6,52.4 181,53.5 177.5,54.7 174.2,55.9 171,57.1 167.9,58.2 165,59.4 162.2,60.5 158.9,61.9 156,63.2 
				153.3,64.6 150.8,65.8 148.5,67.1 146.5,68.3 144.7,69.5 143.1,70.6 141.8,71.8 140.7,72.9 139.8,74 139.2,75 138.8,76 
				138.7,76.9 138.7,77.9 139.1,78.7 139.5,79.6 139.9,80.5 140.4,81.6 140.9,82.8 141.4,84.1 142,85.5 142.7,87 143.4,88.6 
				146,94.7 147.4,97.4 148.1,98.7 148.7,100.1 149.8,102.7 150.6,105.3 151,106.6 151.2,108 151.7,110.5 151.9,111.9 152,113.2 
				152.1,115.8 151.9,118.5 151.5,121 150.9,123.7 150.2,126.2 149.7,127.6 149.2,128.9 148,131.4 146.6,134 145,136.6 144.4,137.6 
				143.9,138.5 143.4,139.5 142.9,140.5 142.5,141.5 142.2,142.6 141.9,143.6 141.7,144.7 140.9,148.1 140.2,151.6 139.5,155.1 
				138.8,158.7 137.3,166 136.5,169.8 136.1,171.7 135.9,172.6 135.8,173.1 135.8,173.4 135.8,173.6 135.5,173.9 133.9,185.2 
				133.5,185.6 133.2,187.1 133,188.8 132.7,190.5 132.4,192.3 132.2,193.2 132.1,193.7 132.1,193.9 132.1,194.1 131.8,196.1 
				131.4,198.1 131.2,199.1 131.1,199.6 131.1,200.1 130.8,201.3 130.6,202.4 130.3,204.6 129.8,206.9 129.4,209.3 128.9,211.9 
				128.8,212.5 128.7,213.1 128.5,214.4 128.2,215.7 128.1,216.4 128,217 127.5,219.7 123.6,239.5 122.3,247.2 122.3,247.2 
				122.3,247.3 122.2,247.7 122.1,248.1 122.1,248.3 122.1,248.4 122,248.8 121.9,248.9 121.9,249 121.9,249.1 121.9,249.3 
				121.8,249.8 121.7,250.4 121.5,251.1 121.4,251.8 121.2,252.6 121.1,253.5 120.9,254.4 120.7,255.4 120.3,257.6 120,259.7 
				119.6,261.5 119.3,263.2 119,264.8 118.8,266.3 118.6,267.6 118.4,268.8 118.2,269.8 117.3,270.6 116.6,271.6 115.8,272.8 
				115.1,274.1 114.9,274.4 114.9,274.7 114.8,274.8 114.8,274.8 114.8,274.9 114.7,275.3 114.6,275.6 114.5,275.8 114.3,276.9 
				114,277.9 113.8,278.2 113.8,278.4 113.5,279 113.3,279.4 113.1,279.6 112.8,280.3 112.4,281.1 112.2,281.5 112.1,281.7 
				112.1,281.9 111.8,282.5 111.7,283.1 111.6,283.3 111.5,283.4 111.5,283.4 111.4,283.7 111.2,284.3 110.4,286.8 109.7,289 
				109,291.1 107.4,295.2 105.5,299.1 103.5,302.9 101.3,306.6 98.9,310.1 96.2,313.5 94.8,315.1 93.4,316.6 92.5,317.7 91.8,318.7 
				91.2,319.8 90.7,321 88.5,322.7 86.4,324.5 84.4,326.3 82.6,328.3 80.7,330.3 79,332.5 77.4,334.7 75.8,337 75.1,338.5 
				72.6,342.3 70.2,346.2 67.8,350.1 65.4,354 60.5,362.2 58,366.3 55.6,370.5 53.2,374.8 51.9,377 51.6,377.6 51.3,378.1 
				50.7,379.1 45.9,388 43.4,392.5 41,397.1 36.1,406.5 34.8,409.1 34.3,410.5 33.9,411.8 33.1,414.4 32.7,417.1 32.5,418.5 
				32.4,419.8 32.5,422.5 32.5,423.9 32.7,425.2 33.3,427.9 33.9,430.2 34.8,432.4 36.1,434.9 37.7,437.3 38.7,438.5 39.8,439.6 
				40.9,440.6 42.1,441.5 43.3,442.3 44.7,442.9 46.1,443.4 47.6,443.8 49.4,444.1 51.1,444.2 52.8,444 54.6,443.5 56.2,443 
				57.8,442.3 59.4,441.6 60.9,440.7 62.3,439.8 63.7,438.8 65,437.7 66.2,436.5 67.4,435.3 68.5,434 69.6,432.6 70.6,431.1 
				71.5,429.6 72.4,427.9 73.2,426.3 74,424.4 74.3,423.7 74.7,423 75.1,422.4 75.5,421.7 76.2,420.3 77,419 77.8,417.7 78.7,416.4 
				83.9,409.4 89.1,402.5 94.4,395.7 99.7,388.9 100.3,388.8 106.7,381.1 106.7,380.4 118.3,365.6 119.9,363.4 121.7,361.2 
				123.4,359.1 125.4,357 127.3,355 129.4,353.1 131.5,351.2 133.8,349.5 136.5,345.9 137.8,344.2 139.2,342.5 142.1,339.2 
				145.2,336.1 146.8,334.6 148.4,333.2 150,331.8 151.7,330.4 155.2,327.8 157,326.6 158.8,325.4 160.7,324.8 162.8,325 
				163.5,325.8 163.1,331.1 162.7,336.2 162,341.2 161.3,346.1 160.3,351 159.3,355.8 158,360.4 156.7,364.9 156.5,366.8 
				156.3,368.8 156,370.7 155.9,371.6 155.8,372.4 155.7,373.1 155.6,373.7 155.5,374.2 155.4,374.7 155.3,374.9 155.3,375.2 
				155.2,375.6 155.2,376.1 155.1,376.8 155,377.5 154.9,378.4 154.8,379.4 154.7,379.6 154.7,379.8 154.6,380.2 154.4,380.9 
				154,382.7 153.6,384.5 153.3,386.5 153.1,387.1 153,387.6 152.8,388.6 152.4,390.9 152.2,392.2 152,393.4 151.6,395.9 
				151.1,398.7 150.7,401.4 150.2,403.7 149.9,405.9 149.5,407.9 149.2,409.7 148.8,411.2 148.6,412.5 148.3,413.6 148.1,414.2 
				148.1,414.7 147.8,415.9 147.6,417.2 147,419.8 146.7,421.3 146.6,422 146.5,422.7 146.3,423.5 146.1,424.3 145.9,425.9 
				145.6,427.6 145.3,429.4 145.1,430.4 145,430.8 145,431.1 145,431.3 144.7,433.1 144.4,435.1 144.1,437.1 141.9,452 141.9,453.5 
				141.9,455 141.8,458 141.7,459.6 141.7,461.1 141.5,464.3 141.2,467.6 141,469.2 140.8,470.9 140.5,474.2 140,477.7 139.9,478.1 
				139.9,478.3 139.9,478.4 139.8,479.1 139.6,480.4 139.4,481.9 139.2,483.3 138.7,486.3 138.4,487.9 138.3,488.3 138.3,488.7 
				138.2,489.5 138,490.3 137.9,490.8 137.8,491.1 137.6,492.8 137.4,493.7 137.2,494.6 136.9,496.3 136.3,499.9 135.6,503.6 
				135.2,503.9 131.2,531.1 131.1,533.3 131,535.6 130.9,538.1 130.9,540.6 130.8,543.2 130.9,545.6 130.9,547.8 131.1,549.8 
				131.2,551.7 131.4,553.4 131.6,555 131.9,556.3 132.9,558.2 133.9,559.9 135,561.4 136.2,562.7 137.4,563.9 138.7,565 140,565.9 
				141.3,566.7 142.8,567.4 144.2,567.9 145.8,568.3 147.3,568.6 149,568.7 150.6,568.7 152.3,568.5 154.1,568.3 156,567.8 
				157.4,567.4 158.7,566.8 160,566.2 161.2,565.5 162.3,564.7 163.3,563.8 164.3,562.8 165.2,561.6 168,556.6 170.7,551.5 
				173.3,546.4 175.7,541.2 178,536 180.1,530.7 182.1,525.3 184,519.8 185.7,514.4 187.3,508.8 188.7,503.2 189.9,497.6 191,491.9 
				192,486.1 192.8,480.3 193.6,474.3 194.1,474 194.3,473.4 194.6,472.7 194.9,471.8 195.3,470.6 195.7,469.4 196.1,468 
				196.6,466.4 197.1,464.7 197.7,462.8 198.2,460.7 198.9,458.6 199.5,456.1 200.2,453.6 201,450.9 201.7,448 202.6,444.9 
				203.4,441.5 204.4,437.8 205.4,433.8 206.5,429.6 207.6,425.2 208.8,420.4 210.1,415.5 211.5,410.3 212,410 216.4,392.6 
				216.9,390.3 217.5,388.1 218.1,385.9 218.7,383.8 219.1,381.9 219.7,379.9 220.2,378 220.4,377.2 220.7,376.3 221.1,374.7 
				221.6,373.1 222,371.6 222.5,370.2 222.9,368.9 223.2,367.6 223.6,366.4 224,365.4 224.1,365.2 224.3,365 224.7,365 225.2,365 
				229.3,369.3 232.8,383.1 233.2,384.3 233.9,388.5 234.4,392.6 234.9,396.7 235.3,400.7 235.4,404.8 235.4,406.9 235.5,409 
				235.5,413.2 235.4,413.8 235.4,414.3 235.4,415.3 235.4,417.4 235.3,418.9 235.3,419.3 235.3,419.6 235.3,420.3 235.2,423.1 
				235.1,424.5 235,426 234.9,428.9 234.7,432 234.6,435.1 234.4,438.3 234.4,441.6 234.2,444.9 234,448 233.8,451.1 233.7,454 
				233.5,456.9 233.3,459.7 233.2,462.3 233.1,464.8 232.9,467.3 232.7,469.6 232.5,471.9 232.4,474 232.3,476 232.2,477.9 
				232,479.8 231.9,481.5 231.5,485.6 231.4,489.6 231.5,493.7 231.8,497.7 231.8,497.8 231.8,498.1 231.8,498.3 231.8,499 
				231.7,499.7 231.6,500.2 231.6,500.6 231.5,501.2 231.5,501.5 231.5,501.7 231.4,502.9 231.3,503.6 231.3,504.3 231.2,505.7 
				231,507.3 230.8,508.5 230.7,509.7 230.6,510.7 230.5,511.6 230.5,512.3 230.5,512.8 230.5,513.1 230.4,513.7 230.4,514.2 
				230.4,515.4 230.4,516.6 230.4,517.9 230.3,519.3 230.3,520.7 230.3,522.2 230.3,523.8 230.2,525.4 230.2,527.1 230.1,529 
				230,530.8 229.9,532.7 229.8,534.7 229.7,536.8 229.7,538.9 229.4,543.2 229.2,547.3 229,551.3 228.8,555 228.6,558.7 
				228.4,562.3 228.4,565.8 228.5,569.4 228.8,576.6 229.2,583.8 229.6,591.2 230.2,598.5 229.8,601.2 229.7,602.6 229.7,603.8 
				229.7,606.3 230,608.7 230.2,611 230.8,613.1 231.1,614.2 231.4,615.2 232.3,617.2 233.3,619.2 234.4,620.9 235.7,622.6 
				237.2,624.2 238.7,625.6 240.5,627 242.4,628.3 244.6,629.5 245.9,630.1 247.3,630.6 248.7,631 250.1,631.1 251.5,631.2 
				253,631.1 254.5,630.9 256,630.5 257.4,630 258.9,629.5 260.3,628.9 261.6,628.2 262.8,627.5 264,626.6 265.2,625.8 266.3,624.8 
				267.3,623.8 268.3,622.8 269.3,621.7 270.2,620.4 271,619.3 271.8,617.9 272.6,616.5 273.3,615.1 274.3,612.6 274.7,611.3 
				275.1,610 275.7,607.4 276.1,604.7 276.7,599.4 277.1,594.1 277.5,588.7 277.8,583.3 277.9,581.3 278,579.2 278.1,576.9 
				278.3,574.5 278.5,572 278.8,569.4 279,566.6 279.3,563.7 279.6,560.6 279.6,560.2 279.7,559.9 279.8,559.1 280,557.6 
				280.1,556.2 280.2,554.9 280.5,552.3 280.7,550 280.8,548.9 280.8,548.7 280.8,548.4 280.9,547.8 281.1,545.9 281.2,545 
				281.3,544.2 281.5,542.3 281.7,540.1 281.7,539.5 281.8,539 281.8,538.8 281.8,538.7 281.8,538.7 281.9,538.6 282,538.2 
				282,537.9 282,537.8 282,537.8 282,537.7 282,537.5 282.1,537.4 283.2,531.3 284.3,525.1 285.3,519 286.2,512.8 287,506.6 
				287.7,500.4 288.4,494.2 289,488 289.5,481.2 290.5,458.2 290.1,457.6 290.6,449 291.3,440.3 292.2,431.6 293.4,422.8 294.7,414 
				296.3,405 298,396 300,387 303.6,379.2 304.3,378.8 304.5,378.7 304.6,378.6 304.7,378.5 305.2,378.2 305.6,378 306.1,377.8 
				306.8,377.6 307.4,377.4 308,377.3 308.6,377.2 308.7,377.2 308.9,377.2 309.2,377.2 309.2,377.3 309.4,377.3 309.7,377.3 
				309.9,377.4 310,377.4 310.1,377.4 310.6,377.6 310.7,377.8 310.9,377.9 311.1,378.2 311.3,378.5 311.8,379.2 312.4,380.2 
				314.8,385.3 314.9,385.7 315.1,386.1 315.4,386.9 315.9,388.4 317.1,391.4 318.1,394.5 319.2,397.6 321.1,403.8 322.8,410 
				324.9,419.1 325.9,423.6 327,428.3 329.1,437.7 331.4,447.3 332.4,452.2 332.9,454.5 333.4,456.7 334.4,461 334.8,463.1 
				335.3,465.1 335.7,467.1 336.1,469 336.5,470.8 336.9,472.5 337.7,475.9 338,477.5 338.4,479 339,482 339.5,484.6 339.8,485.9 
				340.1,487.1 340.5,489.2 340.9,491.2 341.1,492.1 341.3,492.9 341.5,494.4 341.8,495.6 341.8,497.1 344.9,508.5 345.9,511.4 
				347,514.3 348,517.4 349.1,520.5 349.6,522.1 350.1,523.7 350.6,525.1 351,526.5 351.4,527.9 351.8,529.2 352.1,530.4 
				352.5,531.5 352.8,532.6 353,533.6 353.3,534.6 353.5,535.4 353.7,536.3 353.9,537.1 354,537.8 354.1,538.4 354.6,538.5 
				355,541.1 355.5,543.7 356.2,546.2 357,548.7 357.1,548.9 357.2,549.3 357.3,549.7 357.5,550.2 357.7,550.8 357.9,551.4 
				358.1,552.1 358.3,552.9 358.5,553.7 358.8,554.6 359.1,555.6 359.4,556.7 359.7,557.8 360.1,559 360.5,560.3 360.9,561.6 
				361.9,564.3 362.9,566.7 365.5,570.4 366.6,571.1 367,571.5 367.4,571.7 368.6,572.3 369.3,572.7 370.1,572.9 371.9,573.5 
				373.9,574 375.7,574.5 386.1,573.7 387.3,573.2 388.6,572.6 390.9,571.3 393,569.9 393.9,569.2 394.9,568.4 395.8,567.6 
				396.6,566.8 397.4,565.9 398.2,565 398.9,564.1 399.6,563.1 400.8,561 401.3,560 401.7,558.9 402.2,557.8 402.6,556.6 
				402.9,555.5 403.2,554.2 403.7,551.7 403.9,549.1 404,547.8 404,546.3 404,544.9 403.9,543.5 403.8,542 403.7,540.4 			"/>
			<polyline id="polyline2405_00000036968709898487321500000007964742456805195439_" class="st1" points="403.7,540.4 402.4,530.3 
				401,520.2 399.4,510.1 397.7,500 381.6,394.5 379.9,388.5 378.4,382.5 377.1,376.5 375.9,370.5 374.8,364.5 373.9,358.5 
				373.1,352.5 372.6,346.4 372,340.4 371.7,334.4 371.5,328.4 371.4,322.3 371.5,316.3 371.7,310.2 372,304.1 372.6,298 372.9,295 
				373.4,292.1 374.1,289.2 375,286.4 375.4,285.1 375.9,283.7 377.1,281 378.5,278.4 380,275.9 380.1,275.7 380.3,275.4 
				380.5,275.1 380.8,274.7 381.4,273.9 382.2,272.8 382.4,272.6 382.6,272.3 382.7,272.1 382.9,271.9 383,271.8 383.1,271.6 
				383.2,271.4 383.4,271.2 383.5,271.1 383.7,270.9 383.7,270.8 383.8,270.7 385.6,267.8 387.7,265 389.7,262.3 392,259.7 
				394.2,257.1 396.6,254.6 399.1,252.3 401.7,249.9 409.4,250.2 412.4,252.2 415.9,254.8 419.4,257.3 421.9,259.4 424.3,261.2 
				426.5,263.1 427.6,263.9 428.6,264.8 430.4,266.4 432,267.9 433.4,269.3 434.7,270.6 438.6,274.4 441.2,277.6 443.9,281.7 
				443.9,281.8 443.9,281.9 444,282.1 444.2,282.4 444.3,282.7 444.5,283.1 444.8,283.5 445.1,284 446.3,286.1 450.2,298.4 
				453.7,305.1 457.9,309.8 458.3,310.2 458.8,310.5 459.8,311.1 460.3,311.5 461,311.8 462.2,312.5 463.6,313.4 465.1,314.3 
				465.8,314.7 466.7,315.2 468.4,316.1 470.2,317.1 471.8,317.9 473.4,318.8 474.9,319.6 478.8,321.6 482.8,323.3 486.7,324.9 
				490.6,326.1 492.5,326.7 494.4,327.1 498.4,327.9 502.3,328.4 506.2,328.6 510,328.7 513.9,328.4 515.8,328.3 517.8,328 
				521.7,327.2 525.5,326.3 529.4,325 533.2,323.6 537.1,321.8 538.2,321.3 539.2,320.6 540.1,319.9 541,319 541.9,318.1 542.6,317 
				543.3,315.9 544,314.7 544.3,313.9 544.6,313.1 544.9,312.2 545.1,311.3 545.2,309.5 545.2,307.7 545.2,306.9 545,306.2 
				544.8,305.4 544.6,304.6 544.5,304.4 544.4,304.2 544.1,303.6 543.7,302.9 543.1,302 537.7,297.8 532.3,293.4 527,288.9 
				521.9,284.3 516.8,279.6 511.9,274.8 509.4,272.3 507,269.8 502.3,264.7 500.2,262.3 499.2,261 498.3,259.6 497.4,258.2 
				496.6,256.7 495.9,255.3 495.2,253.7 			"/>
		</g>
		<path class="st2" d="M66.1,314.1c-5.5,0-11-1.2-16.3-3.7c-19.1-9-27.2-31.8-18.2-50.8C61.1,197.5,92.8,148.2,126,113
			c35.7-37.9,74.5-61.1,115.3-68.9c64.8-12.5,132.5,13.4,201,77c15.5,14.3,16.4,38.5,2,53.9c-14.3,15.5-38.5,16.4-53.9,2
			c-26-24.1-51.1-41.2-74.5-50.7c-21.3-8.6-41-11-60.2-7.4c-24.8,4.8-49.7,20.4-74.2,46.3c-27.7,29.4-54.9,72.1-80.8,126.9
			C94.1,306,80.4,314.1,66.1,314.1z"/>
		<ellipse class="st3" cx="472.6" cy="330.7" rx="64.2" ry="64.2"/>
	</g>
	<g>
		
			<g id="g2399_00000147903682599613149520000006836706423320276920_" transform="matrix(0.8746401,0,0,-0.8518511,33.878521,592.87107)">
			<polygon id="polygon2401_00000144320078369242747180000002827073286264528559_" class="st0" points="867,470.4 866.9,470.1 
				866.8,469.6 866.7,469.2 866.7,469.1 866.7,469.1 866.7,469 866.6,469 866.7,469.1 866.7,469.1 866.7,469.2 866.7,469.2 
				866.7,469.4 866.8,469.6 866.9,469.8 			"/>
			<polyline id="polyline2403_00000107559336260756251680000014450198049973301423_" class="st1" points="753.6,540.4 753.5,542 
				753.4,543.5 753.3,544.9 753.3,546.3 753.3,547.8 753.4,549.1 753.6,551.7 754.1,554.2 754.4,555.5 754.7,556.6 755.1,557.8 
				755.6,558.9 756.1,560 756.5,561 757.8,563.1 758.4,564.1 759.1,565 759.9,565.9 760.7,566.8 761.5,567.6 762.4,568.4 
				763.4,569.2 764.4,569.9 766.5,571.3 768.7,572.6 770,573.2 771.2,573.7 781.6,574.5 783.4,574 785.4,573.5 787.3,572.9 
				788.1,572.7 788.7,572.3 789.9,571.7 790.4,571.5 790.7,571.1 791.8,570.4 794.5,566.7 795.4,564.3 796.4,561.6 796.8,560.3 
				797.2,559 797.6,557.8 797.9,556.7 798.2,555.6 798.5,554.6 798.8,553.7 799,552.9 799.3,552.1 799.5,551.4 799.7,550.8 
				799.8,550.2 800,549.7 800.1,549.3 800.2,548.9 800.3,548.7 801.1,546.2 801.8,543.7 802.4,541.1 802.7,538.5 803.2,538.4 
				803.3,537.8 803.5,537.1 803.7,536.3 803.8,535.4 804,534.6 804.3,533.6 804.6,532.6 804.8,531.5 805.2,530.4 805.5,529.2 
				805.9,527.9 806.3,526.5 806.8,525.1 807.2,523.7 807.7,522.1 808.2,520.5 809.3,517.4 810.3,514.3 811.4,511.4 812.4,508.5 
				815.5,497.1 815.5,495.6 815.8,494.4 816.1,492.9 816.3,492.1 816.4,491.2 816.8,489.2 817.3,487.1 817.5,485.9 817.8,484.6 
				818.4,482 818.9,479 819.3,477.5 819.6,475.9 820.4,472.5 820.8,470.8 821.2,469 821.6,467.1 822,465.1 822.5,463.1 822.9,461 
				823.9,456.7 824.4,454.5 824.9,452.2 825.9,447.3 828.2,437.7 830.3,428.3 831.4,423.6 832.4,419.1 834.5,410 836.2,403.8 
				838.2,397.6 839.2,394.5 840.3,391.4 841.4,388.4 842,386.9 842.3,386.1 842.4,385.7 842.5,385.3 844.9,380.2 845.5,379.2 
				846,378.5 846.3,378.2 846.5,377.9 846.6,377.8 846.7,377.6 847.2,377.4 847.4,377.4 847.5,377.4 847.6,377.3 847.9,377.3 
				848.1,377.3 848.2,377.2 848.5,377.2 848.6,377.2 848.7,377.2 849.3,377.3 849.9,377.4 850.6,377.6 851.2,377.8 851.7,378 
				852.1,378.2 852.6,378.5 852.8,378.6 852.8,378.7 853,378.8 853.8,379.2 857.3,387 859.3,396 861.1,405 862.6,414 864,422.8 
				865.1,431.6 866,440.3 866.7,449 867.2,457.6 866.9,458.2 867.8,481.2 868.4,488 869,494.2 869.6,500.4 870.4,506.6 871.2,512.8 
				872.1,519 873.1,525.1 874.1,531.3 875.2,537.4 875.3,537.5 875.3,537.7 875.4,537.8 875.4,537.8 875.4,537.9 875.4,538.2 
				875.5,538.6 875.5,538.7 875.5,538.7 875.5,538.8 875.5,539 875.6,539.5 875.6,540.1 875.8,542.3 876,544.2 876.1,545 
				876.2,545.9 876.4,547.8 876.5,548.4 876.6,548.7 876.6,548.9 876.7,550 876.8,552.3 877.1,554.9 877.3,556.2 877.4,557.6 
				877.6,559.1 877.7,559.9 877.7,560.2 877.7,560.6 878,563.7 878.3,566.6 878.6,569.4 878.8,572 879,574.5 879.2,576.9 
				879.3,579.2 879.5,581.3 879.5,583.3 879.8,588.7 880.2,594.1 880.7,599.4 881.2,604.7 881.7,607.4 882.2,610 882.6,611.3 
				883,612.6 884,615.1 884.7,616.5 885.5,617.9 886.3,619.3 887.1,620.4 888.1,621.7 889,622.8 890,623.8 891,624.8 892.2,625.8 
				893.3,626.6 894.5,627.5 895.7,628.2 897.1,628.9 898.5,629.5 899.9,630 901.3,630.5 902.8,630.9 904.3,631.1 905.8,631.2 
				907.2,631.1 908.7,631 910,630.6 911.4,630.1 912.8,629.5 914.9,628.3 916.8,627 918.6,625.6 920.2,624.2 921.6,622.6 
				922.9,620.9 924.1,619.2 925,617.2 925.9,615.2 926.3,614.2 926.6,613.1 927.1,611 927.4,608.7 927.6,606.3 927.6,603.8 
				927.6,602.6 927.5,601.2 927.2,598.5 927.7,591.2 928.2,583.8 928.6,576.6 928.8,569.4 928.9,565.8 928.9,562.3 928.7,558.7 
				928.5,555 928.3,551.3 928.1,547.3 927.9,543.2 927.6,538.9 927.6,536.8 927.5,534.7 927.4,532.7 927.3,530.8 927.3,529 
				927.2,527.1 927.1,525.4 927,523.8 927,522.2 927,520.7 927,519.3 926.9,517.9 926.9,516.6 926.9,515.4 926.9,514.2 926.9,513.7 
				926.8,513.1 926.8,512.8 926.8,512.3 926.8,511.6 926.7,510.7 926.6,509.7 926.5,508.5 926.4,507.3 926.2,505.7 926.1,504.3 
				926,503.6 925.9,502.9 925.8,501.7 925.8,501.5 925.8,501.2 925.7,500.6 925.7,500.2 925.6,499.7 925.6,499 925.6,498.3 
				925.6,498.1 925.5,497.8 925.5,497.7 925.8,493.7 925.9,489.6 925.8,485.6 925.5,481.5 925.4,479.8 925.2,477.9 925.1,476 
				924.9,474 924.8,471.9 924.6,469.6 924.5,467.3 924.3,464.8 924.2,462.3 924,459.7 923.8,456.9 923.6,454 923.5,451.1 923.4,448 
				923.2,444.9 923,441.6 922.9,438.3 922.7,435.1 922.6,432 922.4,428.9 922.3,426 922.3,424.5 922.2,423.1 922.1,420.3 
				922.1,419.6 922.1,419.3 922,418.9 921.9,417.4 921.9,415.3 921.9,414.3 921.9,413.8 921.8,413.2 921.8,409 921.9,406.9 
				921.9,404.8 922.1,400.7 922.4,396.7 922.9,392.6 923.5,388.5 924.1,384.3 924.5,383.1 928,369.3 932.1,365 932.7,365 933,365 
				933.2,365.2 933.4,365.4 933.8,366.4 934.1,367.6 934.5,368.9 934.9,370.2 935.3,371.6 935.7,373.1 936.2,374.7 936.6,376.3 
				936.9,377.2 937.1,378 937.6,379.9 938.2,381.9 938.7,383.8 939.2,385.9 939.8,388.1 940.4,390.3 941,392.6 945.3,410 
				945.8,410.3 947.2,415.5 948.5,420.4 949.7,425.2 950.8,429.6 951.9,433.8 952.9,437.8 953.9,441.5 954.7,444.9 955.6,448 
				956.4,450.9 957.1,453.6 957.8,456.1 958.5,458.6 959.1,460.7 959.7,462.8 960.2,464.7 960.7,466.4 961.2,468 961.6,469.4 
				962,470.6 962.4,471.8 962.7,472.7 963,473.4 963.2,474 963.8,474.3 964.5,480.3 965.3,486.1 966.3,491.9 967.4,497.6 
				968.7,503.2 970.1,508.8 971.6,514.4 973.3,519.8 975.2,525.3 977.2,530.7 979.4,536 981.6,541.2 984,546.4 986.6,551.5 
				989.3,556.6 992.1,561.6 993.1,562.8 994,563.8 995.1,564.7 996.2,565.5 997.3,566.2 998.6,566.8 1000,567.4 1001.4,567.8 
				1003.2,568.3 1005,568.5 1006.7,568.7 1008.4,568.7 1010,568.6 1011.6,568.3 1013.1,567.9 1014.5,567.4 1016,566.7 1017.3,565.9 
				1018.7,565 1019.9,563.9 1021.2,562.7 1022.3,561.4 1023.4,559.9 1024.4,558.2 1025.4,556.3 1025.7,555 1025.9,553.4 
				1026.1,551.7 1026.3,549.8 1026.4,547.8 1026.4,545.6 1026.5,543.2 1026.4,540.6 1026.4,538.1 1026.4,535.6 1026.3,533.3 
				1026.1,531.1 1022.2,503.9 1021.7,503.6 1021.1,499.9 1020.4,496.3 1020.1,494.6 1020,493.7 1019.8,492.8 1019.5,491.1 
				1019.4,490.8 1019.3,490.3 1019.1,489.5 1019.1,488.7 1019,488.3 1018.9,487.9 1018.6,486.3 1018.1,483.3 1018,481.9 
				1017.7,480.4 1017.5,479.1 1017.4,478.4 1017.4,478.3 1017.4,478.1 1017.3,477.7 1016.9,474.2 1016.5,470.9 1016.3,469.2 
				1016.1,467.6 1015.9,464.3 1015.7,461.1 1015.6,459.6 1015.5,458 1015.4,455 1015.4,453.5 1015.4,452 1013.2,437.1 1012.9,435.1 
				1012.7,433.1 1012.4,431.3 1012.4,431.1 1012.3,430.8 1012.2,430.4 1012,429.4 1011.8,427.6 1011.5,425.9 1011.2,424.3 
				1011,423.5 1010.8,422.7 1010.8,422 1010.6,421.3 1010.3,419.8 1009.8,417.2 1009.6,415.9 1009.3,414.7 1009.2,414.2 1009,413.6 
				1008.7,412.5 1008.5,411.2 1008.2,409.7 1007.8,407.9 1007.5,405.9 1007.1,403.7 1006.6,401.4 1006.2,398.7 1005.7,395.9 
				1005.3,393.4 1005.1,392.2 1004.9,390.9 1004.5,388.6 1004.3,387.6 1004.2,387.1 1004.1,386.5 1003.7,384.5 1003.3,382.7 
				1002.9,380.9 1002.7,380.2 1002.6,379.8 1002.6,379.6 1002.5,379.4 1002.4,378.4 1002.3,377.5 1002.2,376.8 1002.1,376.1 
				1002.1,375.6 1002,375.2 1002,374.9 1001.9,374.7 1001.8,374.2 1001.7,373.7 1001.6,373.1 1001.5,372.4 1001.4,371.6 
				1001.3,370.7 1001,368.8 1000.8,366.8 1000.6,364.9 999.3,360.4 998.1,355.8 997,351 996.1,346.1 995.3,341.2 994.7,336.2 
				994.2,331.1 993.9,325.8 994.5,325 996.6,324.8 998.5,325.4 1000.4,326.6 1002.1,327.8 1005.6,330.4 1007.3,331.8 1008.9,333.2 
				1010.6,334.6 1012.1,336.1 1015.2,339.2 1018.1,342.5 1019.5,344.2 1020.9,345.9 1023.5,349.5 1025.8,351.2 1027.9,353.1 
				1030,355 1031.9,357 1033.9,359.1 1035.7,361.2 1037.4,363.4 1039,365.6 1050.6,380.4 1050.6,381.1 1057,388.8 1057.6,388.9 
				1062.9,395.7 1068.2,402.5 1073.4,409.4 1078.6,416.4 1079.5,417.7 1080.3,419 1081.1,420.3 1081.8,421.7 1082.3,422.4 
				1082.6,423 1083,423.7 1083.3,424.4 1084.1,426.3 1084.9,427.9 1085.8,429.6 1086.7,431.1 1087.7,432.6 1088.8,434 1089.9,435.3 
				1091.1,436.5 1092.4,437.7 1093.7,438.8 1095,439.8 1096.4,440.7 1098,441.6 1099.5,442.3 1101.1,443 1102.7,443.5 1104.5,444 
				1106.3,444.2 1108,444.1 1109.7,443.8 1111.2,443.4 1112.6,442.9 1114,442.3 1115.2,441.5 1116.5,440.6 1117.6,439.6 
				1118.7,438.5 1119.6,437.3 1121.2,434.9 1122.5,432.4 1123.4,430.2 1124.1,427.9 1124.6,425.2 1124.8,423.9 1124.9,422.5 
				1124.9,419.8 1124.8,418.5 1124.6,417.1 1124.2,414.4 1123.4,411.8 1123,410.5 1122.5,409.1 1121.2,406.5 1116.3,397.1 
				1113.9,392.5 1111.5,388 1106.6,379.1 1106,378.1 1105.7,377.6 1105.4,377 1104.2,374.8 1101.7,370.5 1099.3,366.3 1096.8,362.2 
				1091.9,354 1089.6,350.1 1087.1,346.2 1084.7,342.3 1082.2,338.5 1081.5,337 1080,334.7 1078.3,332.5 1076.6,330.3 1074.8,328.3 
				1072.9,326.3 1070.9,324.5 1068.9,322.7 1066.7,321 1066.1,319.8 1065.5,318.7 1064.8,317.7 1063.9,316.6 1062.5,315.1 
				1061.1,313.5 1058.5,310.1 1056.1,306.6 1053.8,302.9 1051.8,299.1 1050,295.2 1048.3,291.1 1047.6,289 1046.9,286.8 
				1046.1,284.3 1045.9,283.7 1045.8,283.4 1045.8,283.4 1045.8,283.3 1045.7,283.1 1045.5,282.5 1045.2,281.9 1045.2,281.7 
				1045.1,281.5 1044.9,281.1 1044.5,280.3 1044.2,279.6 1044,279.4 1043.9,279 1043.6,278.4 1043.5,278.2 1043.3,277.9 1043,276.9 
				1042.8,275.8 1042.8,275.6 1042.7,275.3 1042.5,274.9 1042.5,274.8 1042.5,274.8 1042.5,274.7 1042.4,274.4 1042.2,274.1 
				1041.5,272.8 1040.8,271.6 1040,270.6 1039.1,269.8 1038.9,268.8 1038.8,267.6 1038.6,266.3 1038.3,264.8 1038,263.2 
				1037.7,261.5 1037.4,259.7 1037,257.6 1036.6,255.4 1036.5,254.4 1036.3,253.5 1036.1,252.6 1035.9,251.8 1035.8,251.1 
				1035.7,250.4 1035.6,249.8 1035.4,249.3 1035.4,249.1 1035.4,249 1035.4,248.9 1035.4,248.8 1035.3,248.4 1035.3,248.3 
				1035.2,248.1 1035.1,247.7 1035,247.3 1035,247.2 1035,247.2 1033.7,239.5 1029.8,219.7 1029.4,217 1029.3,216.4 1029.1,215.7 
				1028.8,214.4 1028.6,213.1 1028.5,212.5 1028.4,211.9 1027.9,209.3 1027.5,206.9 1027.1,204.6 1026.7,202.4 1026.5,201.3 
				1026.3,200.1 1026.2,199.6 1026.1,199.1 1025.9,198.1 1025.5,196.1 1025.3,194.1 1025.3,193.9 1025.2,193.7 1025.1,193.2 
				1024.9,192.3 1024.6,190.5 1024.3,188.8 1024.1,187.1 1023.8,185.6 1023.4,185.2 1021.9,173.9 1021.5,173.6 1021.5,173.4 
				1021.5,173.1 1021.4,172.6 1021.2,171.7 1020.8,169.8 1020.1,166 1018.5,158.7 1017.9,155.1 1017.1,151.6 1016.4,148.1 
				1015.6,144.7 1015.4,143.6 1015.1,142.6 1014.8,141.5 1014.4,140.5 1013.9,139.5 1013.4,138.5 1012.9,137.6 1012.3,136.6 
				1010.8,134 1009.3,131.4 1008.2,128.9 1007.7,127.6 1007.2,126.2 1006.4,123.7 1005.8,121 1005.5,118.5 1005.3,115.8 
				1005.4,113.2 1005.5,111.9 1005.6,110.5 1006.1,108 1006.4,106.6 1006.7,105.3 1007.6,102.7 1008.6,100.1 1009.2,98.7 
				1009.9,97.4 1011.3,94.7 1013.9,88.6 1014.6,87 1015.3,85.5 1015.9,84.1 1016.4,82.8 1017,81.6 1017.4,80.5 1017.9,79.6 
				1018.2,78.7 1018.6,77.9 1018.7,76.9 1018.5,76 1018.1,75 1017.5,74 1016.7,72.9 1015.6,71.8 1014.2,70.6 1012.7,69.5 
				1010.8,68.3 1008.8,67.1 1006.6,65.8 1004.1,64.6 1001.4,63.2 998.4,61.9 995.2,60.5 992.3,59.4 989.4,58.2 986.3,57.1 
				983.1,55.9 979.8,54.7 976.3,53.5 972.7,52.4 969,51.1 965.1,49.9 961.1,48.7 957,47.4 952.8,46.2 948.4,45 944,43.7 939.3,42.5 
				934.6,41.1 930.5,40.1 926.4,39 924.4,38.6 923.9,38.5 923.4,38.3 922.3,38 918.2,37 914.2,36 910.2,35 909.2,34.8 908.8,34.8 
				908.2,34.6 906.2,34.1 902.3,33.2 900.4,32.8 899.4,32.6 898.9,32.5 898.4,32.4 894.5,31.5 890.7,30.7 886.9,29.8 886.4,29.8 
				886,29.7 885,29.5 883.1,29.1 879.3,28.4 875.6,27.6 871.9,26.9 868.7,26.3 867.2,26.1 865.6,25.8 862.8,25.3 860,24.8 
				858.8,24.7 857.5,24.5 856.9,24.4 856.3,24.4 855.1,24.2 852.9,23.9 850.8,23.6 849.9,23.5 849,23.4 848.1,23.4 847.3,23.3 
				846.6,23.3 845.9,23.3 845.3,23.3 844.7,23.3 844.3,23.4 843.8,23.4 843.2,23.4 842.9,23.5 842.7,23.6 842.7,23.7 842.6,23.8 
				842.5,23.9 842.2,25 841.8,25.9 841.4,26.8 840.9,27.7 840.4,28.7 839.9,29.7 838.7,32 838.1,33.2 837.3,34.5 836.7,35.8 
				835.9,37.3 835.1,38.8 834.3,40.3 833.5,41.9 832.6,43.6 831.7,45.3 830.7,47.1 823.6,60.4 821.8,61.5 821,62 820.1,62.5 
				816.6,64.5 813.3,66.6 811.6,67.7 810,68.8 808.7,69.3 808.1,69.6 807.4,69.9 806.8,70.2 806.2,70.5 805,71 804.5,71.4 
				803.9,71.8 802.8,72.4 801.8,73.1 800.7,73.9 800.5,74.1 800.3,74.3 799.8,74.7 799.6,74.9 799.4,75.1 798.9,75.5 798.1,76.3 
				797.2,77.2 796.5,78.2 795.8,79.1 795.1,80.1 794.5,81.1 791.3,84.2 782.9,92.6 775,101.1 768.4,107.7 749.8,128.9 747.9,130.9 
				743.7,134.7 742.1,136.2 738.4,139.8 734.6,143.4 730.9,146.8 727,150.1 726.6,150.2 712.4,164.9 705.2,177.8 701,191.6 
				699.5,195.2 697.5,201 696.4,203.9 695.1,206.7 693.8,209.4 692.4,212.1 690.9,214.8 689.3,217.3 686,222.4 684.3,224.9 
				682.4,227.3 680.5,229.7 678.4,232 676.4,234.3 674.1,236.5 674.1,236.7 673.9,236.9 673.7,237.2 673.5,237.5 673.3,237.8 
				673,238.1 672.3,239.1 671.9,239.6 671.5,240.1 671,240.8 670.5,241.5 670,242.2 669.4,242.9 668.2,244.7 667.6,245.5 667,246.3 
				666.5,247.1 665.9,247.8 664.9,249.2 664.1,250.5 663.4,251.7 662.7,252.8 662.1,253.7 			"/>
			<polyline id="polyline2405_00000129900651130562564130000015839565336570912904_" class="st1" points="662.1,253.7 661.5,255.3 
				660.7,256.7 659.9,258.2 659,259.6 658.2,261 657.2,262.3 655.1,264.7 650.3,269.8 648,272.3 645.5,274.8 640.6,279.6 
				635.5,284.3 630.4,288.9 625.1,293.4 619.7,297.8 614.2,302 613.7,302.9 613.2,303.6 612.9,304.2 612.8,304.4 612.7,304.6 
				612.5,305.4 612.3,306.2 612.2,306.9 612.1,307.7 612.1,309.5 612.3,311.3 612.5,312.2 612.7,313.1 613,313.9 613.3,314.7 
				614,315.9 614.7,317 615.5,318.1 616.3,319 617.2,319.9 618.1,320.6 619.1,321.3 620.2,321.8 624.1,323.6 627.9,325 631.8,326.3 
				635.6,327.2 639.6,328 641.5,328.3 643.4,328.4 647.3,328.7 651.1,328.6 655.1,328.4 659,327.9 662.9,327.1 664.8,326.7 
				666.7,326.1 670.7,324.9 674.6,323.3 678.5,321.6 682.4,319.6 683.9,318.8 685.5,317.9 687.2,317.1 688.9,316.1 690.6,315.2 
				691.5,314.7 692.3,314.3 693.8,313.4 695.1,312.5 696.4,311.8 697,311.5 697.5,311.1 698.5,310.5 699,310.2 699.4,309.8 
				703.6,305.1 707.1,298.4 711,286.1 712.2,284 712.5,283.5 712.8,283.1 713,282.7 713.2,282.4 713.3,282.1 713.4,281.9 
				713.5,281.8 713.5,281.7 716.1,277.6 718.7,274.4 722.7,270.6 723.9,269.3 725.3,267.9 727,266.4 728.8,264.8 729.8,263.9 
				730.8,263.1 733,261.2 735.4,259.4 738,257.3 741.4,254.8 744.9,252.2 747.9,250.2 755.6,249.9 758.2,252.3 760.7,254.6 
				763.1,257.1 765.4,259.7 767.6,262.3 769.6,265 771.7,267.8 773.6,270.7 773.6,270.8 773.7,270.9 773.8,271.1 773.9,271.2 
				774.1,271.4 774.2,271.6 774.3,271.8 774.4,271.9 774.6,272.1 774.8,272.3 774.9,272.6 775.1,272.8 775.9,273.9 776.5,274.7 
				776.8,275.1 777,275.4 777.2,275.7 777.3,275.9 778.9,278.4 780.2,281 781.4,283.7 781.9,285.1 782.3,286.4 783.2,289.2 
				783.9,292.1 784.4,295 784.8,298 785.3,304.1 785.6,310.2 785.9,316.3 785.9,322.3 785.9,328.4 785.6,334.4 785.3,340.4 
				784.8,346.4 784.2,352.5 783.4,358.5 782.5,364.5 781.4,370.5 780.2,376.5 778.9,382.5 777.4,388.5 775.8,394.5 759.6,500 
				757.9,510.1 756.3,520.2 754.9,530.3 753.6,540.4 			"/>
		</g>
		<path class="st2" d="M1013.9,314.1c5.5,0,11-1.2,16.3-3.7c19.1-9,27.2-31.8,18.2-50.8c-29.4-62.1-61.1-111.4-94.3-146.6
			C918.4,75.1,879.6,52,838.8,44.1c-64.8-12.5-132.5,13.4-201,77c-15.5,14.3-16.4,38.5-2,53.9c14.3,15.5,38.5,16.4,53.9,2
			c26-24.1,51.1-41.2,74.5-50.7c21.3-8.6,41-11,60.2-7.4c24.8,4.8,49.7,20.4,74.2,46.3c27.7,29.4,54.9,72.1,80.8,126.9
			C985.9,306,999.6,314.1,1013.9,314.1z"/>
		<ellipse class="st3" cx="607.4" cy="330.7" rx="64.2" ry="64.2"/>
	</g>
</g>
<g class="st4">
	<path class="st5" d="M479.9,437.8v31.1h-5.5v-31.1h-8.3v-5.1h22.1v5.1H479.9z"/>
	<path class="st5" d="M492.1,429.3h5.3v18.7c1.9-1.7,3.9-2.5,6.2-2.5c2.6,0,4.6,0.8,6.2,2.5c1.3,1.5,2,3.8,2,7v14h-5.3v-13.5
		c0-1.8-0.3-3.2-1-4s-1.7-1.2-3.1-1.2c-1.8,0-3.1,0.6-3.9,1.7c-0.7,1.2-1.1,3.1-1.1,6v11h-5.3V429.3z"/>
	<path class="st5" d="M523.7,446v13.1c0,3.8,1.5,5.7,4.5,5.7s4.5-1.9,4.5-5.7V446h5.3v13.2c0,1.8-0.2,3.4-0.7,4.7
		c-0.4,1.2-1.2,2.3-2.3,3.2c-1.8,1.5-4,2.3-6.8,2.3c-2.7,0-5-0.8-6.8-2.3c-1.1-1-1.9-2-2.3-3.2c-0.4-1.1-0.7-2.6-0.7-4.7V446H523.7z
		"/>
	<path class="st5" d="M544.6,446h5.3v2.1c1-1.1,1.9-1.8,2.6-2.2c0.8-0.4,1.7-0.6,2.9-0.6c2.6,0,4.6,1.1,6.1,3.4
		c1.7-2.2,3.9-3.4,6.7-3.4c5.1,0,7.7,3.1,7.7,9.4v14.1h-5.3v-12.7c0-2.2-0.3-3.7-0.8-4.6c-0.5-0.9-1.4-1.4-2.7-1.4
		c-1.5,0-2.5,0.5-3.2,1.6s-1,2.9-1,5.3v11.8h-5.3v-12.6c0-4.1-1.2-6.1-3.5-6.1c-1.5,0-2.6,0.6-3.2,1.7s-1,2.9-1,5.2v11.8h-5.3V446z"
		/>
	<path class="st5" d="M587.8,429.3v19.4c2.1-2.2,4.5-3.3,7.2-3.3c3.1,0,5.6,1.1,7.7,3.4c2,2.3,3.1,5.1,3.1,8.5c0,3.5-1,6.4-3.1,8.7
		c-2,2.3-4.6,3.4-7.8,3.4c-2.6,0-5-1-7.1-3v2.4h-5.3v-39.6H587.8z M600.3,457.6c0-2.2-0.6-4-1.8-5.3c-1.2-1.4-2.7-2.1-4.5-2.1
		c-1.9,0-3.5,0.7-4.7,2c-1.2,1.3-1.8,3.1-1.8,5.2c0,2.2,0.6,4,1.8,5.3c1.2,1.4,2.8,2,4.7,2c1.8,0,3.3-0.7,4.5-2
		C599.7,461.4,600.3,459.7,600.3,457.6z"/>
</g>
<g class="st4">
	<path class="st6" d="M502,130.8v31.1h-5.5v-31.1h-8.3v-5.1h22.1v5.1H502z"/>
	<path class="st6" d="M511,150.3c0-3.3,1.2-6.1,3.5-8.4s5.2-3.5,8.6-3.5c3.4,0,6.3,1.2,8.7,3.5c2.3,2.3,3.5,5.2,3.5,8.6
		c0,3.4-1.2,6.3-3.5,8.6c-2.4,2.3-5.3,3.4-8.7,3.4c-3.4,0-6.3-1.2-8.6-3.5C512.1,156.7,511,153.8,511,150.3z M516.4,150.4
		c0,2.3,0.6,4.1,1.8,5.4c1.2,1.3,2.9,2,4.9,2c2.1,0,3.7-0.7,4.9-2s1.9-3.1,1.9-5.3s-0.6-4-1.9-5.3c-1.2-1.3-2.9-2-4.9-2
		c-2,0-3.6,0.7-4.9,2S516.4,148.2,516.4,150.4z"/>
	<path class="st6" d="M546.2,174.3h-5.3V139h5.3v2.5c2.1-2.1,4.4-3.1,7.1-3.1c3.1,0,5.7,1.2,7.8,3.5c2.1,2.3,3.1,5.2,3.1,8.7
		c0,3.4-1,6.3-3.1,8.6c-2,2.3-4.6,3.4-7.7,3.4c-2.7,0-5.1-1.1-7.2-3.2V174.3z M558.7,150.6c0-2.2-0.6-4-1.8-5.3
		c-1.2-1.4-2.7-2.1-4.5-2.1c-1.9,0-3.5,0.7-4.7,2s-1.8,3.1-1.8,5.3c0,2.1,0.6,3.9,1.8,5.3c1.2,1.4,2.8,2,4.7,2
		c1.8,0,3.3-0.7,4.5-2.1C558.1,154.4,558.7,152.6,558.7,150.6z"/>
	<path class="st6" d="M583,142.9l-4.4,2.3c-0.7-1.4-1.5-2.1-2.6-2.1c-0.5,0-0.9,0.2-1.2,0.5s-0.5,0.7-0.5,1.2c0,0.9,1,1.7,3,2.6
		c2.8,1.2,4.7,2.3,5.6,3.3s1.5,2.4,1.5,4.1c0,2.2-0.8,4-2.4,5.5c-1.6,1.4-3.5,2.1-5.7,2.1c-3.8,0-6.5-1.9-8.1-5.6l4.5-2.1
		c0.6,1.1,1.1,1.8,1.4,2.1c0.6,0.6,1.4,0.9,2.3,0.9c1.8,0,2.7-0.8,2.7-2.4c0-0.9-0.7-1.8-2.1-2.6c-0.5-0.3-1.1-0.5-1.6-0.8
		s-1.1-0.5-1.6-0.8c-1.5-0.8-2.6-1.5-3.2-2.2c-0.8-1-1.2-2.2-1.2-3.7c0-2,0.7-3.6,2-4.9c1.4-1.3,3.1-1.9,5.1-1.9
		C579.4,138.4,581.5,139.9,583,142.9z"/>
</g>
</svg>
