<?xml version="1.0" encoding="utf-8"?>
<!-- Generator: Adobe Illustrator 26.5.0, SVG Export Plug-In . SVG Version: 6.00 Build 0)  -->
<svg version="1.1" id="レイヤー_1" xmlns="http://www.w3.org/2000/svg" xmlns:xlink="http://www.w3.org/1999/xlink" x="0px"
	 y="0px" viewBox="0 0 566.93 566.93" style="enable-background:new 0 0 566.93 566.93;" xml:space="preserve">
<style type="text/css">
	.st0{fill:none;stroke:#000000;stroke-miterlimit:10;}
</style>
<circle class="st0" cx="283.46" cy="283.46" r="49.61"/>
<circle class="st0" cx="363.64" cy="203.29" r="42.52"/>
<circle class="st0" cx="203.29" cy="203.29" r="42.52"/>
<circle class="st0" cx="203.29" cy="363.64" r="42.52"/>
<circle class="st0" cx="363.64" cy="363.64" r="42.52"/>
<circle class="st0" cx="283.46" cy="510.24" r="49.61"/>
<circle class="st0" cx="443.82" cy="443.82" r="49.61"/>
<circle class="st0" cx="510.24" cy="283.46" r="49.61"/>
<circle class="st0" cx="443.82" cy="123.11" r="49.61"/>
<circle class="st0" cx="283.46" cy="56.69" r="49.61"/>
<circle class="st0" cx="123.11" cy="123.11" r="49.61"/>
<circle class="st0" cx="56.69" cy="283.46" r="49.61"/>
<circle class="st0" cx="123.11" cy="443.82" r="49.61"/>
<g>
	<path d="M282.72,299.45v-32.21h-0.1l-5.9,3.41l-0.96-2.98l7.44-4.18h3.41v35.96H282.72z"/>
</g>
<g>
	<path d="M293.86,527.22h-21.27v-2.45l3.5-3.7c8.54-8.64,12.87-13.87,12.87-19.73c0-3.84-1.68-7.39-6.86-7.39
		c-2.88,0-5.47,1.58-7.2,2.98l-1.34-2.78c2.21-1.97,5.47-3.5,9.31-3.5c7.25,0,10.13,5.28,10.13,10.22c0,6.77-4.75,12.53-12.19,20.02
		l-2.83,2.98v0.1h15.89V527.22z"/>
</g>
<g>
	<path d="M124.96,442.36c4.22,0.72,7.82,4.13,7.82,9.31c0,5.71-4.13,10.71-12.19,10.71c-3.6,0-6.86-1.15-8.5-2.3l1.2-3.07
		c1.3,0.86,4.18,2.16,7.34,2.16c6.05,0,8.02-4.22,8.02-7.54c0-5.28-4.46-7.68-9.17-7.68h-2.35v-2.98h2.35
		c3.46,0,7.92-2.16,7.92-6.67c0-3.12-1.87-5.81-6.19-5.81c-2.64,0-5.14,1.3-6.58,2.35l-1.2-2.93c1.73-1.34,5.09-2.69,8.54-2.69
		c6.58,0,9.5,4.18,9.5,8.5c0,3.7-2.35,7.01-6.53,8.5V442.36z"/>
</g>
<g>
	<path d="M502.06,281.39c1.63-2.4,4.56-4.42,8.4-4.42c6.1,0,10.18,4.56,10.18,11.47c0,6.58-4.03,12.58-11.04,12.58
		c-7.01,0-11.71-5.81-11.71-15.12c0-9.65,4.51-19.73,16.18-21.65c1.34-0.19,2.54-0.34,3.36-0.34l0.05,3.31
		c-9.98,0-14.74,7.25-15.55,14.16H502.06z M516.61,288.74c0-5.52-2.98-8.74-7.3-8.74c-4.22,0-7.44,4.13-7.44,6.82
		c0.05,6.58,2.83,11.09,7.83,11.09C513.87,297.9,516.61,294.16,516.61,288.74z"/>
</g>
<g>
	<path d="M354.93,364c2.83,0.91,4.51,3.65,5.38,7.63c1.15,5.28,1.97,8.5,2.69,9.89h-4.13c-0.58-1.06-1.39-4.27-2.35-8.83
		c-1.06-5.09-3.07-7.34-7.39-7.34h-4.46v16.18h-3.98v-36.05c2.26-0.48,5.42-0.77,8.3-0.77c4.75,0,7.87,0.96,10.03,2.98
		c1.73,1.58,2.74,4.08,2.74,6.82c0,4.85-2.93,7.97-6.82,9.36V364z M349.36,362.27c5.09,0,8.35-2.88,8.35-7.3
		c0-5.42-4.08-7.1-8.54-7.1c-2.16,0-3.7,0.19-4.51,0.38v14.02H349.36z"/>
	<path d="M387.86,381.52h-21.27v-2.45l3.5-3.7c8.54-8.64,12.87-13.87,12.87-19.73c0-3.84-1.68-7.39-6.86-7.39
		c-2.88,0-5.47,1.58-7.2,2.98l-1.34-2.78c2.21-1.97,5.47-3.5,9.31-3.5c7.25,0,10.13,5.28,10.13,10.22c0,6.77-4.75,12.53-12.19,20.02
		l-2.83,2.98v0.1h15.89V381.52z"/>
</g>
<g>
	<path d="M449.04,461.8h-3.79v-10.08h-15.7v-2.54l15.36-23.33h4.13v22.8h4.9v3.07h-4.9V461.8z M433.58,448.65h11.67v-12.77
		c0-1.97,0.1-3.89,0.19-5.76h-0.19c-1.1,2.21-1.97,3.74-2.88,5.38l-8.79,13.06V448.65z"/>
</g>
<g>
	<path d="M65.79,264.49v3.31H52.88l-1.49,10.18c0.77-0.1,1.54-0.19,2.78-0.19c6.38,0,12.1,3.79,12.1,11.04
		c0,7.11-5.28,12.19-12.38,12.19c-3.6,0-6.62-1.06-8.26-2.11l1.15-3.12c1.34,0.91,3.98,2.02,7.1,2.02c4.51,0,8.4-3.31,8.35-8.5
		c0-4.94-3.17-8.4-9.89-8.4c-1.92,0-3.41,0.14-4.61,0.34L50,264.49H65.79z"/>
</g>
<g>
	<path d="M194.58,204c2.83,0.91,4.51,3.65,5.38,7.63c1.15,5.28,1.97,8.5,2.69,9.89h-4.13c-0.58-1.06-1.39-4.27-2.35-8.83
		c-1.06-5.09-3.07-7.34-7.39-7.34h-4.46v16.18h-3.98v-36.05c2.26-0.48,5.42-0.77,8.3-0.77c4.75,0,7.87,0.96,10.03,2.98
		c1.73,1.58,2.74,4.08,2.74,6.82c0,4.85-2.93,7.97-6.82,9.36V204z M189.01,202.27c5.09,0,8.35-2.88,8.35-7.3
		c0-5.42-4.08-7.1-8.54-7.1c-2.16,0-3.7,0.19-4.51,0.38v14.02H189.01z"/>
	<path d="M218.96,202.08c4.22,0.72,7.82,4.13,7.82,9.31c0,5.71-4.13,10.71-12.19,10.71c-3.6,0-6.86-1.15-8.5-2.3l1.2-3.07
		c1.3,0.86,4.18,2.16,7.34,2.16c6.05,0,8.02-4.22,8.02-7.54c0-5.28-4.46-7.68-9.17-7.68h-2.35v-2.98h2.35
		c3.46,0,7.92-2.16,7.92-6.67c0-3.12-1.87-5.81-6.19-5.81c-2.64,0-5.14,1.3-6.58,2.35l-1.2-2.93c1.73-1.34,5.09-2.69,8.54-2.69
		c6.58,0,9.5,4.18,9.5,8.5c0,3.7-2.35,7.01-6.53,8.5V202.08z"/>
</g>
<g>
	<path d="M194.58,364c2.83,0.91,4.51,3.65,5.38,7.63c1.15,5.28,1.97,8.5,2.69,9.89h-4.13c-0.58-1.06-1.39-4.27-2.35-8.83
		c-1.06-5.09-3.07-7.34-7.39-7.34h-4.46v16.18h-3.98v-36.05c2.26-0.48,5.42-0.77,8.3-0.77c4.75,0,7.87,0.96,10.03,2.98
		c1.73,1.58,2.74,4.08,2.74,6.82c0,4.85-2.93,7.97-6.82,9.36V364z M189.01,362.27c5.09,0,8.35-2.88,8.35-7.3
		c0-5.42-4.08-7.1-8.54-7.1c-2.16,0-3.7,0.19-4.51,0.38v14.02H189.01z"/>
	<path d="M216.37,381.52v-32.21h-0.1l-5.9,3.41l-0.96-2.98l7.44-4.18h3.41v35.96H216.37z"/>
</g>
<g>
	<path d="M354.93,204c2.83,0.91,4.51,3.65,5.38,7.63c1.15,5.28,1.97,8.5,2.69,9.89h-4.13c-0.58-1.06-1.39-4.27-2.35-8.83
		c-1.06-5.09-3.07-7.34-7.39-7.34h-4.46v16.18h-3.98v-36.05c2.26-0.48,5.42-0.77,8.3-0.77c4.75,0,7.87,0.96,10.03,2.98
		c1.73,1.58,2.74,4.08,2.74,6.82c0,4.85-2.93,7.97-6.82,9.36V204z M349.36,202.27c5.09,0,8.35-2.88,8.35-7.3
		c0-5.42-4.08-7.1-8.54-7.1c-2.16,0-3.7,0.19-4.51,0.38v14.02H349.36z"/>
	<path d="M384.69,221.52h-3.79v-10.08h-15.7v-2.54l15.36-23.33h4.13v22.8h4.9v3.07h-4.9V221.52z M369.23,208.37h11.67V195.6
		c0-1.97,0.1-3.89,0.19-5.76h-0.19c-1.1,2.21-1.97,3.74-2.88,5.38l-8.79,13.06V208.37z"/>
</g>
<g>
	<path d="M112.91,107.14h21.07v2.54l-15.03,33.41h-4.08l15.03-32.55v-0.1h-16.99V107.14z"/>
</g>
<g>
	<path d="M290.67,58.96c-1.97,2.5-4.75,3.98-8.26,3.98c-6.14,0-9.94-4.8-9.94-10.9c0-6.58,4.32-12.62,11.38-12.62
		c6.72,0,10.99,5.86,10.99,15.03c0,11.95-6.05,20.26-15.27,21.7c-1.68,0.29-3.22,0.38-4.27,0.34v-3.31c1.01,0.1,2.16-0.05,3.7-0.24
		c6.05-0.86,10.61-5.76,11.81-13.97H290.67z M276.51,51.81c0,4.85,2.74,8.11,6.86,8.11c3.89,0,7.44-2.98,7.44-5.86
		c0-6.91-2.54-11.57-7.3-11.57C279.34,42.5,276.51,46.43,276.51,51.81z"/>
</g>
<g>
	<path d="M440.62,122.04c-3.89-1.87-5.62-5.04-5.62-8.11c0-5.57,4.37-9.36,10.18-9.36c6.53,0,9.65,4.42,9.65,8.74
		c0,3.07-1.63,6.43-5.9,8.5v0.19c4.42,1.87,7.15,5.09,7.15,9.41c0,6.1-4.99,10.27-11.33,10.27c-6.86,0-11.09-4.37-11.09-9.55
		c0-4.66,2.78-8.02,6.96-9.89V122.04z M451.99,131.83c0-4.51-3.02-6.82-7.78-8.35c-4.22,1.39-6.48,4.46-6.48,8.02
		c0,4.08,2.74,7.2,7.06,7.2C449.4,138.7,451.99,135.58,451.99,131.83z M438.79,113.54c-0.05,3.84,2.69,5.95,6.67,7.15
		c3.12-1.2,5.47-3.65,5.47-7.06c0-3.02-1.68-6.14-5.9-6.14C440.86,107.49,438.79,110.42,438.79,113.54z"/>
</g>
</svg>
